<mxfile host="Electron" agent="Mozilla/5.0 (Windows NT 10.0; Win64; x64) AppleWebKit/537.36 (KHTML, like Gecko) draw.io/24.7.5 Chrome/126.0.6478.183 Electron/31.3.0 Safari/537.36" version="24.7.5">
  <diagram name="PÃ¡gina-1" id="D67WsPRXgG74f4fXxx72">
    <mxGraphModel dx="2876" dy="1206" grid="1" gridSize="10" guides="1" tooltips="1" connect="1" arrows="1" fold="1" page="1" pageScale="1" pageWidth="827" pageHeight="1169" math="0" shadow="0">
      <root>
        <mxCell id="0" />
        <mxCell id="1" parent="0" />
        <mxCell id="lXlezuKmgCG6nvh3fW_C-13" value="" style="rounded=0;whiteSpace=wrap;html=1;fillColor=none;" parent="1" vertex="1">
          <mxGeometry x="360" y="235" width="390" height="425" as="geometry" />
        </mxCell>
        <mxCell id="lXlezuKmgCG6nvh3fW_C-11" style="edgeStyle=orthogonalEdgeStyle;rounded=0;orthogonalLoop=1;jettySize=auto;html=1;exitX=0.5;exitY=0;exitDx=0;exitDy=0;entryX=0.5;entryY=1;entryDx=0;entryDy=0;" parent="1" edge="1">
          <mxGeometry relative="1" as="geometry">
            <mxPoint x="434" y="390" as="targetPoint" />
          </mxGeometry>
        </mxCell>
        <mxCell id="lXlezuKmgCG6nvh3fW_C-9" style="edgeStyle=orthogonalEdgeStyle;rounded=0;orthogonalLoop=1;jettySize=auto;html=1;exitX=0.5;exitY=1;exitDx=0;exitDy=0;entryX=0.5;entryY=0;entryDx=0;entryDy=0;strokeColor=default;curved=0;endArrow=baseDash;endFill=0;" parent="1" edge="1">
          <mxGeometry relative="1" as="geometry">
            <mxPoint x="434" y="544.5" as="targetPoint" />
          </mxGeometry>
        </mxCell>
        <mxCell id="lXlezuKmgCG6nvh3fW_C-15" value="PRENDA" style="rounded=0;whiteSpace=wrap;html=1;fillColor=#008a00;fontColor=#ffffff;strokeColor=#005700;" parent="1" vertex="1">
          <mxGeometry x="90" y="427.5" width="110" height="40" as="geometry" />
        </mxCell>
        <mxCell id="lXlezuKmgCG6nvh3fW_C-23" style="edgeStyle=orthogonalEdgeStyle;rounded=0;orthogonalLoop=1;jettySize=auto;html=1;exitX=1;exitY=0.5;exitDx=0;exitDy=0;entryX=0;entryY=0.5;entryDx=0;entryDy=0;endArrow=baseDash;endFill=0;" parent="1" source="lXlezuKmgCG6nvh3fW_C-16" target="lXlezuKmgCG6nvh3fW_C-13" edge="1">
          <mxGeometry relative="1" as="geometry" />
        </mxCell>
        <mxCell id="lXlezuKmgCG6nvh3fW_C-24" style="edgeStyle=orthogonalEdgeStyle;rounded=0;orthogonalLoop=1;jettySize=auto;html=1;exitX=0;exitY=0.5;exitDx=0;exitDy=0;entryX=1;entryY=0.5;entryDx=0;entryDy=0;" parent="1" source="lXlezuKmgCG6nvh3fW_C-16" target="lXlezuKmgCG6nvh3fW_C-15" edge="1">
          <mxGeometry relative="1" as="geometry" />
        </mxCell>
        <mxCell id="lXlezuKmgCG6nvh3fW_C-16" value="MOLDE_&lt;div&gt;MATERIAL&lt;/div&gt;&lt;div&gt;PRENDA&lt;/div&gt;" style="rhombus;whiteSpace=wrap;html=1;" parent="1" vertex="1">
          <mxGeometry x="230" y="397.5" width="100" height="100" as="geometry" />
        </mxCell>
        <mxCell id="lXlezuKmgCG6nvh3fW_C-25" value="MOLDE" style="rounded=0;whiteSpace=wrap;html=1;fillColor=#76608a;fontColor=#ffffff;strokeColor=#432D57;" parent="1" vertex="1">
          <mxGeometry x="470" y="330" width="110" height="40" as="geometry" />
        </mxCell>
        <mxCell id="lXlezuKmgCG6nvh3fW_C-26" value="MATERIAL" style="rounded=0;whiteSpace=wrap;html=1;fillColor=#f0a30a;fontColor=#000000;strokeColor=#BD7000;" parent="1" vertex="1">
          <mxGeometry x="470" y="500" width="110" height="40" as="geometry" />
        </mxCell>
        <mxCell id="lXlezuKmgCG6nvh3fW_C-39" style="edgeStyle=orthogonalEdgeStyle;rounded=0;orthogonalLoop=1;jettySize=auto;html=1;exitX=0.5;exitY=1;exitDx=0;exitDy=0;entryX=0.5;entryY=0;entryDx=0;entryDy=0;endArrow=baseDash;endFill=0;" parent="1" source="lXlezuKmgCG6nvh3fW_C-27" target="lXlezuKmgCG6nvh3fW_C-26" edge="1">
          <mxGeometry relative="1" as="geometry" />
        </mxCell>
        <mxCell id="lXlezuKmgCG6nvh3fW_C-40" style="edgeStyle=orthogonalEdgeStyle;rounded=0;orthogonalLoop=1;jettySize=auto;html=1;exitX=0.5;exitY=0;exitDx=0;exitDy=0;entryX=0.5;entryY=1;entryDx=0;entryDy=0;" parent="1" source="lXlezuKmgCG6nvh3fW_C-27" target="lXlezuKmgCG6nvh3fW_C-25" edge="1">
          <mxGeometry relative="1" as="geometry" />
        </mxCell>
        <mxCell id="lXlezuKmgCG6nvh3fW_C-27" value="MOLDE_&lt;div&gt;MATERIAL&lt;/div&gt;" style="rhombus;whiteSpace=wrap;html=1;" parent="1" vertex="1">
          <mxGeometry x="480" y="390" width="90" height="90" as="geometry" />
        </mxCell>
        <mxCell id="lXlezuKmgCG6nvh3fW_C-28" value="ID_MATERIAL" style="ellipse;whiteSpace=wrap;html=1;fillColor=#f0a30a;fontColor=#000000;strokeColor=#BD7000;" parent="1" vertex="1">
          <mxGeometry x="370" y="547" width="100" height="45" as="geometry" />
        </mxCell>
        <mxCell id="lXlezuKmgCG6nvh3fW_C-29" value="&lt;font style=&quot;font-size: 24px;&quot;&gt;*&lt;/font&gt;" style="text;html=1;align=center;verticalAlign=middle;whiteSpace=wrap;rounded=0;" parent="1" vertex="1">
          <mxGeometry x="344" y="587" width="46" height="35" as="geometry" />
        </mxCell>
        <mxCell id="lXlezuKmgCG6nvh3fW_C-31" value="TIPO_MATERIAL" style="ellipse;whiteSpace=wrap;html=1;fillColor=#f0a30a;fontColor=#000000;strokeColor=#BD7000;" parent="1" vertex="1">
          <mxGeometry x="414" y="592" width="100" height="45" as="geometry" />
        </mxCell>
        <mxCell id="lXlezuKmgCG6nvh3fW_C-32" value="STOCK_&lt;div&gt;MATERIAL&lt;/div&gt;" style="ellipse;whiteSpace=wrap;html=1;fillColor=#f0a30a;fontColor=#000000;strokeColor=#BD7000;" parent="1" vertex="1">
          <mxGeometry x="624" y="605" width="100" height="45" as="geometry" />
        </mxCell>
        <mxCell id="lXlezuKmgCG6nvh3fW_C-41" value="ID_MOLDE" style="ellipse;whiteSpace=wrap;html=1;fillColor=#76608a;fontColor=#ffffff;strokeColor=#432D57;" parent="1" vertex="1">
          <mxGeometry x="370" y="260" width="100" height="45" as="geometry" />
        </mxCell>
        <mxCell id="lXlezuKmgCG6nvh3fW_C-42" value="&lt;font style=&quot;font-size: 24px;&quot;&gt;*&lt;/font&gt;" style="text;html=1;align=center;verticalAlign=middle;whiteSpace=wrap;rounded=0;" parent="1" vertex="1">
          <mxGeometry x="350" y="240" width="60" height="30" as="geometry" />
        </mxCell>
        <mxCell id="lXlezuKmgCG6nvh3fW_C-44" value="TIPO_MOLDE" style="ellipse;whiteSpace=wrap;html=1;fillColor=#76608a;fontColor=#ffffff;strokeColor=#432D57;" parent="1" vertex="1">
          <mxGeometry x="580" y="250" width="100" height="45" as="geometry" />
        </mxCell>
        <mxCell id="lXlezuKmgCG6nvh3fW_C-47" value="DESCIPCION_&lt;div&gt;MATERIAL&lt;/div&gt;" style="ellipse;whiteSpace=wrap;html=1;fillColor=#f0a30a;fontColor=#000000;strokeColor=#BD7000;" parent="1" vertex="1">
          <mxGeometry x="514" y="600" width="110" height="50" as="geometry" />
        </mxCell>
        <mxCell id="lXlezuKmgCG6nvh3fW_C-53" value="" style="endArrow=none;html=1;rounded=0;exitX=0.5;exitY=0;exitDx=0;exitDy=0;entryX=0.5;entryY=1;entryDx=0;entryDy=0;" parent="1" source="lXlezuKmgCG6nvh3fW_C-31" target="lXlezuKmgCG6nvh3fW_C-26" edge="1">
          <mxGeometry width="50" height="50" relative="1" as="geometry">
            <mxPoint x="490" y="600" as="sourcePoint" />
            <mxPoint x="540" y="550" as="targetPoint" />
          </mxGeometry>
        </mxCell>
        <mxCell id="lXlezuKmgCG6nvh3fW_C-54" value="" style="endArrow=none;html=1;rounded=0;entryX=0.818;entryY=1;entryDx=0;entryDy=0;entryPerimeter=0;exitX=0.5;exitY=0;exitDx=0;exitDy=0;" parent="1" source="lXlezuKmgCG6nvh3fW_C-47" target="lXlezuKmgCG6nvh3fW_C-26" edge="1">
          <mxGeometry width="50" height="50" relative="1" as="geometry">
            <mxPoint x="80" y="700" as="sourcePoint" />
            <mxPoint x="130" y="650" as="targetPoint" />
          </mxGeometry>
        </mxCell>
        <mxCell id="lXlezuKmgCG6nvh3fW_C-55" value="" style="endArrow=none;html=1;rounded=0;entryX=1;entryY=1;entryDx=0;entryDy=0;" parent="1" source="lXlezuKmgCG6nvh3fW_C-32" target="lXlezuKmgCG6nvh3fW_C-26" edge="1">
          <mxGeometry width="50" height="50" relative="1" as="geometry">
            <mxPoint x="390" y="810" as="sourcePoint" />
            <mxPoint x="440" y="760" as="targetPoint" />
          </mxGeometry>
        </mxCell>
        <mxCell id="lXlezuKmgCG6nvh3fW_C-56" value="" style="endArrow=none;html=1;rounded=0;entryX=0.2;entryY=1;entryDx=0;entryDy=0;entryPerimeter=0;exitX=1;exitY=0;exitDx=0;exitDy=0;" parent="1" source="lXlezuKmgCG6nvh3fW_C-28" target="lXlezuKmgCG6nvh3fW_C-26" edge="1">
          <mxGeometry width="50" height="50" relative="1" as="geometry">
            <mxPoint x="390" y="450" as="sourcePoint" />
            <mxPoint x="440" y="400" as="targetPoint" />
          </mxGeometry>
        </mxCell>
        <mxCell id="lXlezuKmgCG6nvh3fW_C-57" value="" style="endArrow=none;html=1;rounded=0;entryX=1;entryY=0.5;entryDx=0;entryDy=0;exitX=0.25;exitY=0;exitDx=0;exitDy=0;" parent="1" source="lXlezuKmgCG6nvh3fW_C-25" target="lXlezuKmgCG6nvh3fW_C-41" edge="1">
          <mxGeometry width="50" height="50" relative="1" as="geometry">
            <mxPoint x="100" y="650" as="sourcePoint" />
            <mxPoint x="150" y="600" as="targetPoint" />
          </mxGeometry>
        </mxCell>
        <mxCell id="lXlezuKmgCG6nvh3fW_C-59" value="" style="endArrow=none;html=1;rounded=0;entryX=0;entryY=1;entryDx=0;entryDy=0;exitX=0.75;exitY=0;exitDx=0;exitDy=0;" parent="1" source="lXlezuKmgCG6nvh3fW_C-25" target="lXlezuKmgCG6nvh3fW_C-44" edge="1">
          <mxGeometry width="50" height="50" relative="1" as="geometry">
            <mxPoint x="50" y="640" as="sourcePoint" />
            <mxPoint x="100" y="590" as="targetPoint" />
          </mxGeometry>
        </mxCell>
        <mxCell id="lXlezuKmgCG6nvh3fW_C-62" value="ID_PRENDA" style="ellipse;whiteSpace=wrap;html=1;fillColor=#008a00;fontColor=#ffffff;strokeColor=#005700;" parent="1" vertex="1">
          <mxGeometry x="10" y="370" width="100" height="45" as="geometry" />
        </mxCell>
        <mxCell id="lXlezuKmgCG6nvh3fW_C-63" value="&lt;font style=&quot;font-size: 24px;&quot;&gt;*&lt;/font&gt;" style="text;html=1;align=center;verticalAlign=middle;whiteSpace=wrap;rounded=0;" parent="1" vertex="1">
          <mxGeometry x="-10" y="350" width="60" height="30" as="geometry" />
        </mxCell>
        <mxCell id="lXlezuKmgCG6nvh3fW_C-64" value="" style="endArrow=none;html=1;rounded=0;entryX=1;entryY=1;entryDx=0;entryDy=0;exitX=0.25;exitY=0;exitDx=0;exitDy=0;" parent="1" source="lXlezuKmgCG6nvh3fW_C-15" target="lXlezuKmgCG6nvh3fW_C-62" edge="1">
          <mxGeometry width="50" height="50" relative="1" as="geometry">
            <mxPoint x="70" y="570" as="sourcePoint" />
            <mxPoint x="120" y="520" as="targetPoint" />
          </mxGeometry>
        </mxCell>
        <mxCell id="lXlezuKmgCG6nvh3fW_C-65" value="TALLE_PRENDA" style="ellipse;whiteSpace=wrap;html=1;fillColor=#008a00;fontColor=#ffffff;strokeColor=#005700;" parent="1" vertex="1">
          <mxGeometry x="-60" y="435" width="100" height="45" as="geometry" />
        </mxCell>
        <mxCell id="lXlezuKmgCG6nvh3fW_C-66" value="" style="endArrow=none;html=1;rounded=0;entryX=0;entryY=0.5;entryDx=0;entryDy=0;" parent="1" source="lXlezuKmgCG6nvh3fW_C-65" target="lXlezuKmgCG6nvh3fW_C-15" edge="1">
          <mxGeometry width="50" height="50" relative="1" as="geometry">
            <mxPoint x="-20" y="620" as="sourcePoint" />
            <mxPoint x="30" y="570" as="targetPoint" />
          </mxGeometry>
        </mxCell>
        <mxCell id="lXlezuKmgCG6nvh3fW_C-67" value="STOCK&lt;span style=&quot;background-color: initial;&quot;&gt;_&lt;/span&gt;&lt;div&gt;&lt;span style=&quot;background-color: initial;&quot;&gt;PRENDA&lt;/span&gt;&lt;/div&gt;" style="ellipse;whiteSpace=wrap;html=1;fillColor=#008a00;fontColor=#ffffff;strokeColor=#005700;" parent="1" vertex="1">
          <mxGeometry x="-40" y="500" width="100" height="45" as="geometry" />
        </mxCell>
        <mxCell id="lXlezuKmgCG6nvh3fW_C-68" value="" style="endArrow=none;html=1;rounded=0;entryX=0.25;entryY=1;entryDx=0;entryDy=0;" parent="1" source="lXlezuKmgCG6nvh3fW_C-67" target="lXlezuKmgCG6nvh3fW_C-15" edge="1">
          <mxGeometry width="50" height="50" relative="1" as="geometry">
            <mxPoint x="20" y="660" as="sourcePoint" />
            <mxPoint x="70" y="610" as="targetPoint" />
          </mxGeometry>
        </mxCell>
        <mxCell id="lXlezuKmgCG6nvh3fW_C-69" value="&lt;span style=&quot;background-color: initial;&quot;&gt;PRECIO_&lt;/span&gt;&lt;div&gt;&lt;span style=&quot;background-color: initial;&quot;&gt;UNITARIO_&lt;/span&gt;&lt;/div&gt;&lt;div&gt;&lt;span style=&quot;background-color: initial;&quot;&gt;PRENDA&lt;/span&gt;&lt;/div&gt;" style="ellipse;whiteSpace=wrap;html=1;fillColor=#008a00;fontColor=#ffffff;strokeColor=#005700;" parent="1" vertex="1">
          <mxGeometry x="60" y="310" width="110" height="50" as="geometry" />
        </mxCell>
        <mxCell id="lXlezuKmgCG6nvh3fW_C-70" value="" style="endArrow=none;html=1;rounded=0;entryX=0.5;entryY=0;entryDx=0;entryDy=0;exitX=0.5;exitY=1;exitDx=0;exitDy=0;" parent="1" target="lXlezuKmgCG6nvh3fW_C-15" edge="1" source="lXlezuKmgCG6nvh3fW_C-69">
          <mxGeometry width="50" height="50" relative="1" as="geometry">
            <mxPoint x="145" y="370" as="sourcePoint" />
            <mxPoint x="230" y="670" as="targetPoint" />
          </mxGeometry>
        </mxCell>
        <mxCell id="lXlezuKmgCG6nvh3fW_C-71" value="" style="endArrow=none;html=1;rounded=0;entryX=0.75;entryY=1;entryDx=0;entryDy=0;exitX=0.5;exitY=0;exitDx=0;exitDy=0;edgeStyle=orthogonalEdgeStyle;" parent="1" source="lXlezuKmgCG6nvh3fW_C-77" target="lXlezuKmgCG6nvh3fW_C-15" edge="1">
          <mxGeometry width="50" height="50" relative="1" as="geometry">
            <mxPoint x="210" y="610" as="sourcePoint" />
            <mxPoint x="250" y="590" as="targetPoint" />
          </mxGeometry>
        </mxCell>
        <mxCell id="lXlezuKmgCG6nvh3fW_C-72" value="" style="endArrow=none;html=1;rounded=0;exitX=1;exitY=0.5;exitDx=0;exitDy=0;" parent="1" source="lXlezuKmgCG6nvh3fW_C-26" edge="1">
          <mxGeometry width="50" height="50" relative="1" as="geometry">
            <mxPoint x="790" y="530" as="sourcePoint" />
            <mxPoint x="820" y="520" as="targetPoint" />
          </mxGeometry>
        </mxCell>
        <mxCell id="lXlezuKmgCG6nvh3fW_C-73" value="MATERIAL_&lt;div&gt;PROVEEDOR&lt;/div&gt;" style="rhombus;whiteSpace=wrap;html=1;" parent="1" vertex="1">
          <mxGeometry x="790" y="470" width="120" height="100" as="geometry" />
        </mxCell>
        <mxCell id="lXlezuKmgCG6nvh3fW_C-74" value="PROVEEDOR" style="rounded=0;whiteSpace=wrap;html=1;" parent="1" vertex="1">
          <mxGeometry x="980" y="500" width="110" height="40" as="geometry" />
        </mxCell>
        <mxCell id="lXlezuKmgCG6nvh3fW_C-75" value="" style="endArrow=none;html=1;rounded=0;exitX=1;exitY=0.5;exitDx=0;exitDy=0;entryX=0;entryY=0.5;entryDx=0;entryDy=0;" parent="1" source="lXlezuKmgCG6nvh3fW_C-73" target="lXlezuKmgCG6nvh3fW_C-74" edge="1">
          <mxGeometry width="50" height="50" relative="1" as="geometry">
            <mxPoint x="960" y="920" as="sourcePoint" />
            <mxPoint x="1010" y="870" as="targetPoint" />
          </mxGeometry>
        </mxCell>
        <mxCell id="lXlezuKmgCG6nvh3fW_C-76" value="VENTA" style="rounded=0;whiteSpace=wrap;html=1;fillColor=#0050ef;strokeColor=#001DBC;" parent="1" vertex="1">
          <mxGeometry x="135" y="767.5" width="90" height="30" as="geometry" />
        </mxCell>
        <mxCell id="lXlezuKmgCG6nvh3fW_C-77" value="VENTA_&lt;div&gt;PRENDA&lt;/div&gt;" style="rhombus;whiteSpace=wrap;html=1;" parent="1" vertex="1">
          <mxGeometry x="130" y="531.5" width="100" height="82" as="geometry" />
        </mxCell>
        <mxCell id="lXlezuKmgCG6nvh3fW_C-78" value="" style="endArrow=none;html=1;rounded=0;exitX=0.5;exitY=0;exitDx=0;exitDy=0;entryX=0.5;entryY=1;entryDx=0;entryDy=0;" parent="1" source="lXlezuKmgCG6nvh3fW_C-76" target="lXlezuKmgCG6nvh3fW_C-77" edge="1">
          <mxGeometry width="50" height="50" relative="1" as="geometry">
            <mxPoint x="60" y="770" as="sourcePoint" />
            <mxPoint x="110" y="720" as="targetPoint" />
          </mxGeometry>
        </mxCell>
        <mxCell id="lXlezuKmgCG6nvh3fW_C-79" value="ID_VENTA" style="ellipse;whiteSpace=wrap;html=1;fillColor=#0050ef;strokeColor=#001DBC;" parent="1" vertex="1">
          <mxGeometry x="-5" y="737.5" width="100" height="45" as="geometry" />
        </mxCell>
        <mxCell id="lXlezuKmgCG6nvh3fW_C-80" value="&lt;font style=&quot;font-size: 24px;&quot;&gt;*&lt;/font&gt;" style="text;html=1;align=center;verticalAlign=middle;whiteSpace=wrap;rounded=0;" parent="1" vertex="1">
          <mxGeometry x="-5" y="722.5" width="40" height="25" as="geometry" />
        </mxCell>
        <mxCell id="lXlezuKmgCG6nvh3fW_C-81" value="" style="endArrow=none;html=1;rounded=0;exitX=1;exitY=0;exitDx=0;exitDy=0;entryX=0;entryY=0.5;entryDx=0;entryDy=0;" parent="1" source="lXlezuKmgCG6nvh3fW_C-79" target="lXlezuKmgCG6nvh3fW_C-76" edge="1">
          <mxGeometry width="50" height="50" relative="1" as="geometry">
            <mxPoint x="285" y="1052.5" as="sourcePoint" />
            <mxPoint x="335" y="1002.5" as="targetPoint" />
          </mxGeometry>
        </mxCell>
        <mxCell id="lXlezuKmgCG6nvh3fW_C-82" value="ID_PRENDA" style="ellipse;whiteSpace=wrap;html=1;fillColor=#0050ef;strokeColor=#001DBC;" parent="1" vertex="1">
          <mxGeometry x="15" y="817.5" width="100" height="45" as="geometry" />
        </mxCell>
        <mxCell id="lXlezuKmgCG6nvh3fW_C-83" value="&lt;font style=&quot;font-size: 24px;&quot;&gt;*&lt;/font&gt;" style="text;html=1;align=center;verticalAlign=middle;whiteSpace=wrap;rounded=0;" parent="1" vertex="1">
          <mxGeometry x="-10" y="797.5" width="50" height="40" as="geometry" />
        </mxCell>
        <mxCell id="lXlezuKmgCG6nvh3fW_C-85" value="" style="endArrow=none;html=1;rounded=0;entryX=0;entryY=0.75;entryDx=0;entryDy=0;exitX=0.5;exitY=0;exitDx=0;exitDy=0;" parent="1" source="lXlezuKmgCG6nvh3fW_C-82" target="lXlezuKmgCG6nvh3fW_C-76" edge="1">
          <mxGeometry width="50" height="50" relative="1" as="geometry">
            <mxPoint x="615" y="1092.5" as="sourcePoint" />
            <mxPoint x="665" y="1042.5" as="targetPoint" />
          </mxGeometry>
        </mxCell>
        <mxCell id="lXlezuKmgCG6nvh3fW_C-92" value="CANTIDAD_&lt;div&gt;VENTA&lt;/div&gt;" style="ellipse;whiteSpace=wrap;html=1;fillColor=#0050ef;strokeColor=#001DBC;" parent="1" vertex="1">
          <mxGeometry x="100" y="877.5" width="100" height="45" as="geometry" />
        </mxCell>
        <mxCell id="lXlezuKmgCG6nvh3fW_C-93" value="CALIDAD_&lt;div&gt;VENTA&lt;/div&gt;" style="ellipse;whiteSpace=wrap;html=1;fillColor=#0050ef;strokeColor=#001DBC;" parent="1" vertex="1">
          <mxGeometry x="205" y="877.5" width="100" height="45" as="geometry" />
        </mxCell>
        <mxCell id="lXlezuKmgCG6nvh3fW_C-95" value="" style="endArrow=none;html=1;rounded=0;exitX=0.5;exitY=0;exitDx=0;exitDy=0;entryX=0.5;entryY=1;entryDx=0;entryDy=0;" parent="1" source="lXlezuKmgCG6nvh3fW_C-92" target="lXlezuKmgCG6nvh3fW_C-76" edge="1">
          <mxGeometry width="50" height="50" relative="1" as="geometry">
            <mxPoint x="255" y="892.5" as="sourcePoint" />
            <mxPoint x="205" y="822.5" as="targetPoint" />
          </mxGeometry>
        </mxCell>
        <mxCell id="lXlezuKmgCG6nvh3fW_C-96" value="" style="endArrow=none;html=1;rounded=0;exitX=0;exitY=0;exitDx=0;exitDy=0;entryX=0.75;entryY=1;entryDx=0;entryDy=0;" parent="1" source="lXlezuKmgCG6nvh3fW_C-93" target="lXlezuKmgCG6nvh3fW_C-76" edge="1">
          <mxGeometry width="50" height="50" relative="1" as="geometry">
            <mxPoint x="305" y="842.5" as="sourcePoint" />
            <mxPoint x="355" y="792.5" as="targetPoint" />
          </mxGeometry>
        </mxCell>
        <mxCell id="lXlezuKmgCG6nvh3fW_C-97" value="DESCUENTO_&lt;div&gt;VENTA&lt;/div&gt;" style="ellipse;whiteSpace=wrap;html=1;fillColor=#0050ef;strokeColor=#001DBC;" parent="1" vertex="1">
          <mxGeometry x="314" y="862.5" width="100" height="45" as="geometry" />
        </mxCell>
        <mxCell id="lXlezuKmgCG6nvh3fW_C-98" value="" style="endArrow=none;html=1;rounded=0;entryX=1;entryY=1;entryDx=0;entryDy=0;exitX=0;exitY=0;exitDx=0;exitDy=0;" parent="1" source="lXlezuKmgCG6nvh3fW_C-97" target="lXlezuKmgCG6nvh3fW_C-76" edge="1">
          <mxGeometry width="50" height="50" relative="1" as="geometry">
            <mxPoint x="355" y="867.5" as="sourcePoint" />
            <mxPoint x="405" y="817.5" as="targetPoint" />
          </mxGeometry>
        </mxCell>
        <mxCell id="lXlezuKmgCG6nvh3fW_C-118" style="edgeStyle=orthogonalEdgeStyle;rounded=0;orthogonalLoop=1;jettySize=auto;html=1;exitX=1;exitY=0.5;exitDx=0;exitDy=0;entryX=0;entryY=0.5;entryDx=0;entryDy=0;" parent="1" source="lXlezuKmgCG6nvh3fW_C-114" target="lXlezuKmgCG6nvh3fW_C-116" edge="1">
          <mxGeometry relative="1" as="geometry" />
        </mxCell>
        <mxCell id="lXlezuKmgCG6nvh3fW_C-114" value="VENTA_&lt;div&gt;COMERCIO&lt;/div&gt;" style="rhombus;whiteSpace=wrap;html=1;" parent="1" vertex="1">
          <mxGeometry x="455" y="737.5" width="90" height="85" as="geometry" />
        </mxCell>
        <mxCell id="lXlezuKmgCG6nvh3fW_C-115" value="" style="endArrow=none;html=1;rounded=0;exitX=1;exitY=0.5;exitDx=0;exitDy=0;entryX=0;entryY=0.5;entryDx=0;entryDy=0;" parent="1" source="lXlezuKmgCG6nvh3fW_C-76" target="lXlezuKmgCG6nvh3fW_C-114" edge="1">
          <mxGeometry width="50" height="50" relative="1" as="geometry">
            <mxPoint x="305" y="802.5" as="sourcePoint" />
            <mxPoint x="355" y="752.5" as="targetPoint" />
          </mxGeometry>
        </mxCell>
        <mxCell id="lXlezuKmgCG6nvh3fW_C-116" value="&lt;font color=&quot;#000000&quot;&gt;COMERCIO&lt;/font&gt;" style="rounded=0;whiteSpace=wrap;html=1;fillColor=#fad9d5;strokeColor=#ae4132;" parent="1" vertex="1">
          <mxGeometry x="705" y="765" width="90" height="30" as="geometry" />
        </mxCell>
        <mxCell id="lXlezuKmgCG6nvh3fW_C-119" value="&lt;font color=&quot;#000000&quot;&gt;ID_COMERCIO&lt;/font&gt;" style="ellipse;whiteSpace=wrap;html=1;fillColor=#fad9d5;strokeColor=#ae4132;" parent="1" vertex="1">
          <mxGeometry x="565" y="832.5" width="100" height="45" as="geometry" />
        </mxCell>
        <mxCell id="lXlezuKmgCG6nvh3fW_C-120" value="" style="endArrow=none;html=1;rounded=0;exitX=1;exitY=0;exitDx=0;exitDy=0;entryX=0;entryY=0.75;entryDx=0;entryDy=0;" parent="1" source="lXlezuKmgCG6nvh3fW_C-119" target="lXlezuKmgCG6nvh3fW_C-116" edge="1">
          <mxGeometry width="50" height="50" relative="1" as="geometry">
            <mxPoint x="855" y="922.5" as="sourcePoint" />
            <mxPoint x="755" y="802.5" as="targetPoint" />
          </mxGeometry>
        </mxCell>
        <mxCell id="lXlezuKmgCG6nvh3fW_C-121" value="&lt;font style=&quot;font-size: 24px;&quot;&gt;*&lt;/font&gt;" style="text;html=1;align=center;verticalAlign=middle;whiteSpace=wrap;rounded=0;" parent="1" vertex="1">
          <mxGeometry x="555" y="802.5" width="50" height="40" as="geometry" />
        </mxCell>
        <mxCell id="lXlezuKmgCG6nvh3fW_C-122" value="&lt;font color=&quot;#000000&quot;&gt;NOMBRE_&lt;/font&gt;&lt;div&gt;&lt;font color=&quot;#000000&quot;&gt;COMERCIO&lt;/font&gt;&lt;/div&gt;" style="ellipse;whiteSpace=wrap;html=1;fillColor=#fad9d5;strokeColor=#ae4132;" parent="1" vertex="1">
          <mxGeometry x="745" y="877.5" width="100" height="45" as="geometry" />
        </mxCell>
        <mxCell id="lXlezuKmgCG6nvh3fW_C-123" value="&lt;font color=&quot;#000000&quot;&gt;TELEFONO_&lt;/font&gt;&lt;div&gt;&lt;font color=&quot;#000000&quot;&gt;COMERCIO&lt;/font&gt;&lt;/div&gt;" style="ellipse;whiteSpace=wrap;html=1;fillColor=#fad9d5;strokeColor=#ae4132;" parent="1" vertex="1">
          <mxGeometry x="862" y="777.5" width="100" height="45" as="geometry" />
        </mxCell>
        <mxCell id="lXlezuKmgCG6nvh3fW_C-124" value="&lt;font color=&quot;#000000&quot;&gt;DIRECCION_&lt;/font&gt;&lt;div&gt;&lt;font color=&quot;#000000&quot;&gt;CIUDAD_&lt;/font&gt;&lt;/div&gt;&lt;div&gt;&lt;font color=&quot;#000000&quot;&gt;COMERCIO&lt;/font&gt;&lt;/div&gt;" style="ellipse;whiteSpace=wrap;html=1;fillColor=#fad9d5;strokeColor=#ae4132;" parent="1" vertex="1">
          <mxGeometry x="825" y="837.5" width="120" height="55" as="geometry" />
        </mxCell>
        <mxCell id="lXlezuKmgCG6nvh3fW_C-125" value="&lt;font color=&quot;#000000&quot;&gt;DESCIPCION_&lt;/font&gt;&lt;div&gt;&lt;font color=&quot;#000000&quot;&gt;COMERCIO&lt;/font&gt;&lt;/div&gt;" style="ellipse;whiteSpace=wrap;html=1;fillColor=#fad9d5;strokeColor=#ae4132;" parent="1" vertex="1">
          <mxGeometry x="875" y="720" width="100" height="45" as="geometry" />
        </mxCell>
        <mxCell id="lXlezuKmgCG6nvh3fW_C-126" value="" style="endArrow=none;html=1;rounded=0;entryX=0.344;entryY=0.983;entryDx=0;entryDy=0;entryPerimeter=0;exitX=0.5;exitY=0;exitDx=0;exitDy=0;" parent="1" source="lXlezuKmgCG6nvh3fW_C-122" target="lXlezuKmgCG6nvh3fW_C-116" edge="1">
          <mxGeometry width="50" height="50" relative="1" as="geometry">
            <mxPoint x="925" y="852.5" as="sourcePoint" />
            <mxPoint x="975" y="802.5" as="targetPoint" />
          </mxGeometry>
        </mxCell>
        <mxCell id="lXlezuKmgCG6nvh3fW_C-127" value="" style="endArrow=none;html=1;rounded=0;entryX=0.5;entryY=1;entryDx=0;entryDy=0;exitX=0.408;exitY=0.055;exitDx=0;exitDy=0;exitPerimeter=0;" parent="1" source="lXlezuKmgCG6nvh3fW_C-124" target="lXlezuKmgCG6nvh3fW_C-116" edge="1">
          <mxGeometry width="50" height="50" relative="1" as="geometry">
            <mxPoint x="945" y="822.5" as="sourcePoint" />
            <mxPoint x="995" y="772.5" as="targetPoint" />
          </mxGeometry>
        </mxCell>
        <mxCell id="lXlezuKmgCG6nvh3fW_C-128" value="" style="endArrow=none;html=1;rounded=0;entryX=0.75;entryY=1;entryDx=0;entryDy=0;exitX=0;exitY=0;exitDx=0;exitDy=0;" parent="1" source="lXlezuKmgCG6nvh3fW_C-123" target="lXlezuKmgCG6nvh3fW_C-116" edge="1">
          <mxGeometry width="50" height="50" relative="1" as="geometry">
            <mxPoint x="965" y="832.5" as="sourcePoint" />
            <mxPoint x="1015" y="782.5" as="targetPoint" />
          </mxGeometry>
        </mxCell>
        <mxCell id="lXlezuKmgCG6nvh3fW_C-129" value="" style="endArrow=none;html=1;rounded=0;entryX=1;entryY=0.5;entryDx=0;entryDy=0;exitX=0;exitY=0.5;exitDx=0;exitDy=0;" parent="1" source="lXlezuKmgCG6nvh3fW_C-125" target="lXlezuKmgCG6nvh3fW_C-116" edge="1">
          <mxGeometry width="50" height="50" relative="1" as="geometry">
            <mxPoint x="1005" y="772.5" as="sourcePoint" />
            <mxPoint x="1055" y="722.5" as="targetPoint" />
          </mxGeometry>
        </mxCell>
        <mxCell id="lXlezuKmgCG6nvh3fW_C-130" value="&lt;font color=&quot;#000000&quot;&gt;ID_VENTA&lt;/font&gt;" style="ellipse;whiteSpace=wrap;html=1;fillColor=#ffcccc;strokeColor=#36393d;" parent="1" vertex="1">
          <mxGeometry x="635" y="870" width="100" height="45" as="geometry" />
        </mxCell>
        <mxCell id="lXlezuKmgCG6nvh3fW_C-131" value="" style="endArrow=none;html=1;rounded=0;entryX=0.25;entryY=1;entryDx=0;entryDy=0;exitX=0.58;exitY=-0.033;exitDx=0;exitDy=0;exitPerimeter=0;" parent="1" source="lXlezuKmgCG6nvh3fW_C-130" target="lXlezuKmgCG6nvh3fW_C-116" edge="1">
          <mxGeometry width="50" height="50" relative="1" as="geometry">
            <mxPoint x="465" y="722.5" as="sourcePoint" />
            <mxPoint x="515" y="672.5" as="targetPoint" />
          </mxGeometry>
        </mxCell>
        <mxCell id="AKAZVBkH7e2Hev-N8ql8-2" value="PRENDA_&lt;div&gt;CALIDAD&lt;/div&gt;" style="rhombus;whiteSpace=wrap;html=1;" parent="1" vertex="1">
          <mxGeometry x="-140" y="665.5" width="100" height="82" as="geometry" />
        </mxCell>
        <mxCell id="AKAZVBkH7e2Hev-N8ql8-3" value="" style="endArrow=none;html=1;rounded=0;entryX=0.5;entryY=1;entryDx=0;entryDy=0;exitX=0.5;exitY=0;exitDx=0;exitDy=0;edgeStyle=orthogonalEdgeStyle;" parent="1" source="AKAZVBkH7e2Hev-N8ql8-2" target="lXlezuKmgCG6nvh3fW_C-15" edge="1">
          <mxGeometry width="50" height="50" relative="1" as="geometry">
            <mxPoint x="70" y="560" as="sourcePoint" />
            <mxPoint x="120" y="510" as="targetPoint" />
            <Array as="points">
              <mxPoint x="-90" y="590" />
              <mxPoint x="110" y="590" />
              <mxPoint x="110" y="510" />
              <mxPoint x="145" y="510" />
            </Array>
          </mxGeometry>
        </mxCell>
        <mxCell id="AKAZVBkH7e2Hev-N8ql8-4" value="&lt;font color=&quot;#000000&quot;&gt;ID_CALIDAD&lt;/font&gt;" style="ellipse;whiteSpace=wrap;html=1;fillColor=#f9f7ed;strokeColor=#36393d;" parent="1" vertex="1">
          <mxGeometry x="-350" y="787.5" width="100" height="45" as="geometry" />
        </mxCell>
        <mxCell id="AKAZVBkH7e2Hev-N8ql8-5" value="" style="endArrow=none;html=1;rounded=0;exitX=0.5;exitY=0;exitDx=0;exitDy=0;entryX=0.5;entryY=1;entryDx=0;entryDy=0;edgeStyle=orthogonalEdgeStyle;" parent="1" source="AKAZVBkH7e2Hev-N8ql8-7" target="AKAZVBkH7e2Hev-N8ql8-2" edge="1">
          <mxGeometry width="50" height="50" relative="1" as="geometry">
            <mxPoint x="-140" y="800" as="sourcePoint" />
            <mxPoint x="-91" y="742" as="targetPoint" />
          </mxGeometry>
        </mxCell>
        <mxCell id="AKAZVBkH7e2Hev-N8ql8-7" value="&lt;font color=&quot;#000000&quot;&gt;CALIDAD&lt;/font&gt;" style="rounded=0;whiteSpace=wrap;html=1;fillColor=#f9f7ed;strokeColor=#36393d;" parent="1" vertex="1">
          <mxGeometry x="-190" y="795" width="90" height="30" as="geometry" />
        </mxCell>
        <mxCell id="AKAZVBkH7e2Hev-N8ql8-9" value="&lt;font color=&quot;#000000&quot;&gt;CLASIFICACION_ CALIDAD&lt;/font&gt;" style="ellipse;whiteSpace=wrap;html=1;fillColor=#f9f7ed;strokeColor=#36393d;" parent="1" vertex="1">
          <mxGeometry x="-330" y="842.5" width="110" height="50" as="geometry" />
        </mxCell>
        <mxCell id="AKAZVBkH7e2Hev-N8ql8-10" value="&lt;font color=&quot;#000000&quot;&gt;EMPLEADO_ CALIDAD&lt;/font&gt;" style="ellipse;whiteSpace=wrap;html=1;fillColor=#f9f7ed;strokeColor=#36393d;" parent="1" vertex="1">
          <mxGeometry x="-250" y="892.5" width="110" height="50" as="geometry" />
        </mxCell>
        <mxCell id="AKAZVBkH7e2Hev-N8ql8-11" value="" style="endArrow=none;html=1;rounded=0;exitX=1;exitY=0;exitDx=0;exitDy=0;entryX=0;entryY=0.5;entryDx=0;entryDy=0;" parent="1" source="AKAZVBkH7e2Hev-N8ql8-4" target="AKAZVBkH7e2Hev-N8ql8-7" edge="1">
          <mxGeometry width="50" height="50" relative="1" as="geometry">
            <mxPoint x="-280" y="840" as="sourcePoint" />
            <mxPoint x="-230" y="790" as="targetPoint" />
          </mxGeometry>
        </mxCell>
        <mxCell id="AKAZVBkH7e2Hev-N8ql8-12" value="" style="endArrow=none;html=1;rounded=0;entryX=0.25;entryY=1;entryDx=0;entryDy=0;exitX=0.5;exitY=0;exitDx=0;exitDy=0;" parent="1" source="AKAZVBkH7e2Hev-N8ql8-9" target="AKAZVBkH7e2Hev-N8ql8-7" edge="1">
          <mxGeometry width="50" height="50" relative="1" as="geometry">
            <mxPoint x="-240" y="900" as="sourcePoint" />
            <mxPoint x="-190" y="850" as="targetPoint" />
          </mxGeometry>
        </mxCell>
        <mxCell id="AKAZVBkH7e2Hev-N8ql8-13" value="" style="endArrow=none;html=1;rounded=0;entryX=0.5;entryY=1;entryDx=0;entryDy=0;exitX=0.5;exitY=0;exitDx=0;exitDy=0;" parent="1" source="AKAZVBkH7e2Hev-N8ql8-10" target="AKAZVBkH7e2Hev-N8ql8-7" edge="1">
          <mxGeometry width="50" height="50" relative="1" as="geometry">
            <mxPoint x="-80" y="880" as="sourcePoint" />
            <mxPoint x="-30" y="830" as="targetPoint" />
          </mxGeometry>
        </mxCell>
        <mxCell id="AKAZVBkH7e2Hev-N8ql8-14" value="&lt;font color=&quot;#000000&quot;&gt;CANTIDAD&lt;/font&gt;" style="ellipse;whiteSpace=wrap;html=1;fillColor=#f9f7ed;strokeColor=#36393d;" parent="1" vertex="1">
          <mxGeometry x="-130" y="892.5" width="110" height="50" as="geometry" />
        </mxCell>
        <mxCell id="AKAZVBkH7e2Hev-N8ql8-15" value="" style="endArrow=none;html=1;rounded=0;entryX=0.75;entryY=1;entryDx=0;entryDy=0;exitX=0.5;exitY=0;exitDx=0;exitDy=0;" parent="1" source="AKAZVBkH7e2Hev-N8ql8-14" target="AKAZVBkH7e2Hev-N8ql8-7" edge="1">
          <mxGeometry width="50" height="50" relative="1" as="geometry">
            <mxPoint x="-80" y="870" as="sourcePoint" />
            <mxPoint x="-30" y="820" as="targetPoint" />
          </mxGeometry>
        </mxCell>
        <mxCell id="76W0Nq4d-T3b5b9TK2XG-1" value="DESCRIPCION" style="ellipse;whiteSpace=wrap;html=1;fillColor=#008a00;fontColor=#ffffff;strokeColor=#005700;" vertex="1" parent="1">
          <mxGeometry x="180" y="330" width="100" height="45" as="geometry" />
        </mxCell>
        <mxCell id="76W0Nq4d-T3b5b9TK2XG-3" value="" style="endArrow=none;html=1;rounded=0;exitX=0.75;exitY=0;exitDx=0;exitDy=0;entryX=0.5;entryY=1;entryDx=0;entryDy=0;" edge="1" parent="1" source="lXlezuKmgCG6nvh3fW_C-15" target="76W0Nq4d-T3b5b9TK2XG-1">
          <mxGeometry width="50" height="50" relative="1" as="geometry">
            <mxPoint x="180" y="420" as="sourcePoint" />
            <mxPoint x="230" y="370" as="targetPoint" />
          </mxGeometry>
        </mxCell>
        <mxCell id="76W0Nq4d-T3b5b9TK2XG-4" value="CANTIDAD" style="ellipse;whiteSpace=wrap;html=1;fillColor=#f0a30a;fontColor=#000000;strokeColor=#BD7000;" vertex="1" parent="1">
          <mxGeometry x="650" y="545" width="100" height="45" as="geometry" />
        </mxCell>
        <mxCell id="76W0Nq4d-T3b5b9TK2XG-5" value="" style="endArrow=none;html=1;rounded=0;entryX=0;entryY=0;entryDx=0;entryDy=0;exitX=1;exitY=0.75;exitDx=0;exitDy=0;" edge="1" parent="1" source="lXlezuKmgCG6nvh3fW_C-26" target="76W0Nq4d-T3b5b9TK2XG-4">
          <mxGeometry width="50" height="50" relative="1" as="geometry">
            <mxPoint x="380" y="660" as="sourcePoint" />
            <mxPoint x="430" y="610" as="targetPoint" />
          </mxGeometry>
        </mxCell>
      </root>
    </mxGraphModel>
  </diagram>
</mxfile>
